PathFileType	4	(X/Y/Z)	D:\TRACE\v60_Jaco2_6-2-23\JustBodyDRS_Motion1_2-v60.trc
DataRate	CameraRate	NumFrames	NumMarkers	Units	OrigDataRate	OrigDataStartFrame	OrigNumFrames
100.00	100.00	      31	9	mm	100.00	4347	      6954
Frame#	Time	front left toe			Front right toe			aft left toe			aft right toe			Arm			FL body			FR body			AL Body			AR Body			
		X1	Y1	Z1	X2	Y2	Z2	X3	Y3	Z3	X4	Y4	Z4	X5	Y5	Z5	X6	Y6	Z6	X7	Y7	Z7	X8	Y8	Z8	X9	Y9	Z9	

4347	43.460	-124.35368	119.44350	-200.24127	232.80563	6.96967	-215.46701	-120.33457	27.74795	427.40427	274.40677	140.03061	411.68158	-55.06934	1200.99548	-353.10306	-23.12850	568.70636	-346.25452	136.12544	569.78510	-353.05319	16.27494	570.68414	598.87854	172.61859	565.66650	592.70105	
4348	43.470	-124.59210	113.32883	-200.33168	233.56491	6.90027	-215.65086	-119.50443	27.99356	427.44299	273.27240	132.97284	412.19440	-54.61923	1200.33130	-354.17316	-22.68804	568.59906	-347.13876	137.73212	570.00696	-353.71191	16.63099	570.73401	598.67548	172.63318	565.66193	592.61273	
4349	43.480	-125.36095	106.82614	-200.35556	234.57867	6.75146	-215.59755	-119.61768	29.07981	427.25470	272.41260	124.93471	412.82419	-53.74467	1199.87915	-354.72446	-21.46654	568.47113	-347.24442	138.70210	569.75433	-354.07828	17.08184	571.01593	598.37775	173.20866	566.05621	592.67871	
4350	43.490	-126.31265	99.49544	-200.75436	235.58423	6.61051	-215.49991	-118.61053	29.01280	427.10275	271.32315	115.81239	413.24762	-52.69849	1199.39258	-355.47479	-20.23254	568.05414	-347.70242	139.26913	569.10083	-354.05154	17.58682	571.49823	597.66547	173.95805	566.29144	592.56714	
4351	43.500	-126.47161	90.83409	-200.89502	236.59174	6.44613	-215.60394	-118.13927	29.24441	427.03549	270.27631	105.82520	413.68124	-51.84745	1199.06433	-355.83902	-19.46078	567.78845	-347.86691	141.15036	569.03894	-354.27460	17.81286	571.63672	597.48181	174.53114	566.46527	592.24384	
4352	43.510	-126.89287	82.16077	-201.17732	237.29855	6.15171	-215.74396	-116.80479	28.94182	426.91077	269.50531	97.06144	413.88379	-50.82577	1198.81409	-356.76566	-17.30393	567.03229	-347.78442	142.22937	568.75159	-354.57834	18.60513	571.75714	597.38068	174.89029	566.79932	591.86401	
4353	43.520	-127.80406	73.52308	-201.16096	238.59180	6.00383	-215.84326	-115.95810	29.35671	426.69623	268.06693	87.83291	413.50598	-49.74785	1198.42444	-357.30231	-16.30620	566.43286	-347.98553	143.52951	568.35016	-354.70026	19.24785	572.06390	597.23151	175.47681	566.97443	591.72919	
4354	43.530	-128.15906	64.62139	-201.14095	239.41978	5.99076	-215.78683	-116.44850	30.51577	426.27676	267.03320	78.66259	413.31662	-48.56342	1198.27563	-358.02066	-15.99381	566.93713	-348.86880	144.15887	568.02875	-354.75317	20.09047	571.90710	597.12939	175.88370	567.05835	591.57983	
4355	43.540	-128.48178	56.26654	-201.54279	240.34059	5.86256	-215.93085	-115.31540	30.44421	426.07315	266.66672	69.70751	412.48386	-47.20261	1198.16504	-358.48953	-15.04907	567.07837	-349.27396	145.28639	567.97107	-354.92715	20.68841	572.21320	596.69330	177.04893	567.36676	591.33398	
4356	43.550	-128.34412	48.21859	-202.09930	241.42184	5.95296	-215.79895	-114.29254	30.54061	426.14792	267.50183	61.35710	411.31195	-45.52637	1198.32825	-359.04840	-13.55517	566.89551	-349.45862	146.93642	568.01904	-355.42758	21.31555	572.43774	596.36951	177.27408	567.56268	590.92328	
4357	43.560	-127.82432	40.19661	-202.98723	242.16364	5.66138	-215.95587	-113.21622	30.60031	426.06546	268.19205	53.30447	410.08618	-44.08872	1198.36987	-359.81448	-12.51122	566.87878	-349.90738	148.08626	568.00928	-355.74487	21.93531	572.87195	595.58331	178.17357	567.59741	590.75354	
4358	43.570	-126.69791	32.58062	-203.86404	243.07800	5.58185	-216.19099	-112.18504	30.52244	425.96960	269.63000	46.26967	408.85718	-42.17334	1198.75574	-360.04947	-11.26378	566.76410	-350.25983	148.92686	567.78375	-356.09109	22.26860	572.89789	595.27490	179.06343	567.83307	590.44574	
4359	43.580	-126.08150	26.13579	-204.59738	244.30502	5.54153	-216.16963	-110.97263	30.44627	425.91510	270.92743	39.84157	407.92978	-40.52774	1198.87915	-360.64938	-9.33994	566.42529	-350.23267	150.27040	567.81750	-356.35464	23.34743	572.88605	594.95966	179.74446	567.98895	589.93152	
4360	43.590	-124.92614	19.91693	-205.60757	245.28674	5.57643	-216.32405	-109.93922	30.68775	425.92249	271.52997	34.18652	406.37820	-38.81636	1199.08142	-360.82791	-8.35813	566.81915	-350.74988	150.93768	567.79932	-356.66763	24.13346	573.19666	594.70477	180.72920	568.06451	589.65466	
4361	43.600	-124.74554	14.02182	-206.76172	245.89647	5.45204	-216.31505	-108.93150	30.70131	425.70236	273.28320	34.67472	404.65723	-37.09189	1199.15149	-361.41507	-7.83475	566.93768	-351.57468	151.90485	567.89911	-357.07449	24.82018	573.57660	593.94916	181.31699	568.29816	589.31738	
4362	43.610	-124.09978	12.37558	-208.79147	247.01563	5.21968	-216.16379	-107.75421	30.77419	425.52008	274.20148	32.51157	405.22720	-35.48214	1199.28284	-361.89227	-6.69451	566.90930	-352.07156	154.21143	567.69238	-357.52704	25.93287	574.71783	593.40594	182.06085	569.17133	589.00604	
4363	43.620	-123.37243	9.82219	-208.51869	247.70808	5.11640	-216.35519	-106.85292	31.28163	425.60843	275.66333	33.09898	404.24268	-33.77815	1199.35571	-362.69080	-4.24807	566.47357	-352.06409	155.21690	567.72870	-357.88498	25.66443	576.35626	593.68152	182.89302	570.39673	588.82294	
4364	43.630	-122.86491	10.41464	-208.33650	249.14165	5.45999	-216.32440	-105.37497	31.32985	425.57425	276.10992	33.30341	405.35635	-32.77417	1199.37988	-364.64294	-3.52763	567.88654	-352.65027	157.03592	568.13788	-357.88449	27.16187	577.26062	593.20465	183.85141	571.66937	588.82068	
4365	43.640	-121.33038	9.98780	-208.45840	250.25644	7.12933	-216.79120	-104.64435	33.64534	424.36237	276.66956	32.78398	405.58295	-31.34973	1199.84741	-366.19678	-2.02813	569.20050	-352.84857	158.39821	569.13342	-358.00024	27.97535	578.12872	593.20123	184.52303	572.41125	588.54529	
4366	43.650	-120.62540	10.50719	-208.31311	248.99086	10.97709	-214.91911	-101.47009	36.92838	425.38626	278.34845	32.43311	404.92975	-29.05211	1200.71277	-367.35574	-0.54197	570.40771	-353.23380	159.97345	570.41809	-358.28616	28.03353	579.11511	593.05005	185.32411	572.80017	588.29279	
4367	43.660	-119.20757	10.18288	-209.07722	247.58459	16.29176	-211.82500	-97.08582	42.04019	426.46335	279.01715	32.55087	404.76810	-26.20696	1201.71350	-367.29477	0.83483	570.81305	-354.11392	161.20180	570.99402	-358.97150	29.01780	578.85565	591.65997	185.88777	573.27277	587.75336	
4368	43.670	-118.46108	9.89551	-209.23087	247.04333	25.99607	-210.95287	-91.18484	50.85558	426.63907	279.69562	32.76390	404.50076	-23.41784	1202.87756	-366.86115	2.07329	570.87201	-354.55307	162.00412	570.81366	-359.14474	29.94995	579.72998	591.19989	186.31351	574.05475	587.26947	
4369	43.680	-117.58732	9.43561	-208.89528	248.12230	36.41496	-210.94769	-86.73630	61.68524	425.73026	281.06888	32.62339	404.50497	-21.08366	1203.48328	-366.60577	3.97679	570.27460	-354.67819	163.86253	570.43164	-359.86584	31.22713	580.01868	590.83215	187.62791	574.37683	586.98676	
4370	43.690	-116.05395	9.20821	-208.76654	250.42619	48.20717	-212.30106	-85.28731	73.43067	424.08789	281.78268	32.36832	404.87207	-19.86456	1203.29736	-366.77917	4.86835	570.09930	-354.92429	164.51726	570.10602	-360.23834	32.42648	580.04822	590.63818	188.82755	574.34241	586.62671	
4371	43.700	-115.32362	9.39447	-208.71638	253.40872	61.63569	-214.34117	-86.30708	86.01823	422.18011	283.31644	32.37304	404.61649	-18.61487	1202.68665	-367.64145	4.99130	570.30627	-355.65079	165.17474	569.82758	-360.21967	33.71972	579.95282	590.13770	190.49393	573.90991	586.22388	
4372	43.710	-114.98771	9.75022	-208.75865	256.75348	74.38301	-216.52370	-87.64619	98.35699	420.24634	284.12061	32.29089	404.68585	-18.24586	1201.84253	-368.73041	5.52978	570.22504	-355.74844	166.34581	569.41547	-360.38620	35.84113	579.27655	590.15533	192.08574	573.19226	585.81879	
4373	43.720	-114.03384	9.48777	-208.88564	259.61807	86.74596	-218.85448	-87.34895	110.39942	418.37186	285.43015	32.24657	404.58835	-17.51158	1200.63354	-369.39063	6.92862	569.64160	-355.95667	167.60287	568.87640	-360.93839	37.20986	579.17798	589.99066	193.67667	572.85950	585.45496	
4374	43.730	-112.60349	8.94979	-208.74034	262.02890	98.43609	-220.68913	-89.28810	124.58819	416.25116	286.32013	32.10733	404.44821	-16.32744	1200.22131	-369.96494	7.91173	568.92993	-355.89713	167.80038	568.10065	-361.15546	38.83493	579.18829	589.55969	195.43451	572.84229	585.15204	
4375	43.740	-112.10487	8.91517	-208.63104	264.31549	109.56554	-222.00563	-86.67642	135.62886	414.94125	286.92853	31.95174	404.51935	-15.81930	1199.41919	-369.87469	9.04685	568.23993	-356.20023	168.76627	567.28882	-361.63834	40.68832	579.20972	589.29895	197.31129	572.86182	584.83344	
4376	43.750	-111.30713	8.90091	-208.42293	266.52863	119.61001	-223.40112	-84.00404	146.42494	413.76849	288.35367	32.36063	404.56003	-14.53245	1199.75354	-370.31427	9.82277	567.66705	-356.52249	169.90355	566.87653	-362.23456	42.48552	579.48767	589.06873	199.20134	573.17053	584.33173	
4377	43.760	-110.23936	8.70012	-208.65541	269.47708	128.91344	-225.09116	-80.35519	154.80577	412.79160	289.51855	32.25819	404.48044	-13.30163	1199.72473	-370.98871	10.74471	566.80530	-356.35553	170.27208	566.22491	-362.36621	44.21059	579.86340	588.85345	200.69186	573.43097	584.05334	
